# Blender v2.90.1 OBJ File: 'roof.blend'
# www.blender.org
mtllib roof.mtl
o ceiling_Cube.005
v 5.590382 10.013029 5.626844
v -5.582484 10.013030 5.626842
v 5.590384 10.013029 -5.605286
v -5.582482 10.013030 -5.605288
v 5.590382 10.198495 5.626844
v -5.582484 10.198496 5.626842
v 5.590384 10.198495 -5.605286
v -5.582482 10.198496 -5.605288
vt 0.996197 0.993579
vt 0.996197 0.006421
vt 0.003803 0.006421
vt 0.003803 0.993579
vt 0.508193 0.993579
vt 0.508194 0.006421
vt 0.491807 0.006421
vt 0.491807 0.993579
vt 0.003803 0.993579
vt 0.003803 0.006421
vt 0.996197 0.006421
vt 0.996197 0.993579
vt 0.491807 0.993579
vt 0.491807 0.006421
vt 0.508194 0.006421
vt 0.508193 0.993579
vt 0.508193 0.003803
vt 0.491807 0.003803
vt 0.491807 0.996197
vt 0.508193 0.996197
vt 0.491807 0.003803
vt 0.508194 0.003803
vt 0.508194 0.996197
vt 0.491807 0.996197
vn -0.0000 -1.0000 0.0000
vn 0.0000 0.0000 -1.0000
vn 0.0000 1.0000 0.0000
vn -0.0000 0.0000 1.0000
vn 1.0000 0.0000 0.0000
vn -1.0000 0.0000 -0.0000
g ceiling_Cube.005_White_concrete
usemtl White_concrete
s off
f 1/1/1 2/2/1 4/3/1 3/4/1
f 3/5/2 4/6/2 8/7/2 7/8/2
f 7/9/3 8/10/3 6/11/3 5/12/3
f 5/13/4 6/14/4 2/15/4 1/16/4
f 3/17/5 7/18/5 5/19/5 1/20/5
f 8/21/6 4/22/6 2/23/6 6/24/6
o Lampcase_Cube
v -0.400000 9.706155 3.200001
v -0.400000 10.006154 3.200001
v -0.400000 9.706155 -3.200001
v -0.400000 10.006154 -3.200001
v 0.400000 9.706155 3.200001
v 0.400000 10.006154 3.200001
v 0.400000 9.706155 -3.200001
v 0.400000 10.006154 -3.200001
v 0.000000 9.952913 -3.200001
v 0.000000 10.006154 -3.200001
v 0.000000 9.952913 3.200001
v 0.000000 10.006154 3.200001
v 0.200000 10.006154 -3.200001
v 0.200000 9.952913 3.200001
v 0.200000 9.952913 -3.200001
v 0.200000 10.006154 3.200001
v -0.200000 9.952913 -3.200001
v -0.200000 10.006154 3.200001
v -0.200000 10.006154 -3.200001
v -0.200000 9.952913 3.200001
v -0.400000 9.706155 3.300001
v -0.400000 10.006154 3.300001
v 0.400000 9.706155 3.300001
v 0.400000 10.006154 3.300001
v 0.000000 9.706254 3.300001
v 0.000000 10.006154 3.300001
v 0.200000 9.706254 3.300001
v 0.200000 10.006154 3.300001
v -0.200000 10.006154 3.300001
v -0.200000 9.706254 3.300001
v -0.400000 9.706155 -3.300001
v -0.400000 10.006154 -3.300001
v 0.400000 9.706155 -3.300001
v 0.400000 10.006154 -3.300001
v 0.000000 9.706254 -3.300001
v 0.000000 10.006154 -3.300001
v 0.200000 10.006154 -3.300001
v 0.200000 9.706254 -3.300001
v -0.200000 9.706254 -3.300001
v -0.200000 10.006154 -3.300001
vt 0.375000 0.000000
vt 0.625000 0.000000
vt 0.625000 0.250000
vt 0.375000 0.250000
vt 0.375000 0.500000
vt 0.312500 0.500000
vt 0.312500 0.500000
vt 0.375000 0.500000
vt 0.625000 0.500000
vt 0.625000 0.750000
vt 0.375000 0.750000
vt 0.812500 0.750000
vt 0.875000 0.750000
vt 0.875000 0.750000
vt 0.812500 0.750000
vt 0.312500 0.750000
vt 0.812500 0.500000
vt 0.875000 0.500000
vt 0.687500 0.500000
vt 0.750000 0.500000
vt 0.750000 0.750000
vt 0.687500 0.750000
vt 0.187500 0.500000
vt 0.250000 0.500000
vt 0.250000 0.750000
vt 0.187500 0.750000
vt 0.312500 0.750000
vt 0.250000 0.750000
vt 0.625000 0.500000
vt 0.687500 0.500000
vt 0.187500 0.750000
vt 0.187500 0.500000
vt 0.250000 0.500000
vt 0.125000 0.500000
vt 0.125000 0.500000
vt 0.125000 0.750000
vt 0.125000 0.750000
vt 0.375000 0.937500
vt 0.625000 0.937500
vt 0.625000 1.000000
vt 0.375000 1.000000
vt 0.375000 0.812500
vt 0.625000 0.812500
vt 0.625000 0.875000
vt 0.375000 0.875000
vt 0.375000 0.750000
vt 0.625000 0.750000
vt 0.375000 0.000000
vt 0.625000 0.000000
vt 0.750000 0.750000
vt 0.687500 0.750000
vt 0.375000 0.437500
vt 0.625000 0.437500
vt 0.375000 0.312500
vt 0.625000 0.312500
vt 0.625000 0.375000
vt 0.375000 0.375000
vt 0.375000 0.250000
vt 0.625000 0.250000
vt 0.812500 0.500000
vt 0.875000 0.500000
vt 0.750000 0.500000
vn -1.0000 0.0000 0.0000
vn -0.3623 -0.5870 0.7240
vn 1.0000 0.0000 0.0000
vn 0.0000 1.0000 0.0000
vn -0.7769 -0.6297 0.0000
vn 0.0000 -1.0000 0.0000
vn 0.0000 -0.3757 -0.9267
vn 0.0000 -0.3757 0.9267
vn 0.3623 -0.5870 0.7240
vn 0.7769 -0.6297 0.0000
vn 0.3623 -0.5870 -0.7240
vn 0.0000 0.0000 1.0000
vn -0.3623 -0.5870 -0.7240
vn 0.0000 0.0000 -1.0000
g Lampcase_Cube_Material
usemtl Material
s off
f 9/25/7 10/26/7 12/27/7 11/28/7
f 15/29/8 23/30/8 46/31/8 41/32/8
f 15/29/9 16/33/9 14/34/9 13/35/9
f 26/36/10 10/37/10 30/38/10 37/39/10
f 23/30/11 15/29/11 13/35/11 22/40/11
f 27/41/10 12/42/10 10/37/10 26/36/10
f 21/43/10 18/44/10 20/45/10 24/46/10
f 25/47/12 17/48/12 19/49/12 28/50/12
f 19/49/13 22/40/13 35/51/13 33/52/13
f 21/43/10 16/33/10 42/53/10 45/54/10
f 28/50/13 19/49/13 33/52/13 38/55/13
f 16/33/10 21/43/10 24/46/10 14/34/10
f 17/48/12 23/30/12 22/40/12 19/49/12
f 17/48/14 25/47/14 47/56/14 43/57/14
f 25/47/15 11/58/15 39/59/15 47/56/15
f 11/58/16 25/47/16 28/50/16 9/60/16
f 18/44/10 27/41/10 26/36/10 20/45/10
f 9/60/17 28/50/17 38/55/17 29/61/17
f 38/62/18 37/63/18 30/64/18 29/65/18
f 35/66/18 36/67/18 34/68/18 33/69/18
f 31/70/18 32/71/18 36/67/18 35/66/18
f 33/69/18 34/68/18 37/63/18 38/62/18
f 10/26/7 9/25/7 29/72/7 30/73/7
f 24/46/10 20/45/10 34/74/10 36/75/10
f 20/45/10 26/36/10 37/39/10 34/74/10
f 13/35/9 14/34/9 32/71/9 31/70/9
f 14/34/10 24/46/10 36/75/10 32/71/10
f 22/40/19 13/35/19 31/70/19 35/51/19
f 46/76/20 45/77/20 42/53/20 41/32/20
f 47/78/20 48/79/20 44/80/20 43/81/20
f 43/81/20 44/80/20 45/77/20 46/76/20
f 39/82/20 40/83/20 48/79/20 47/78/20
f 23/30/14 17/48/14 43/57/14 46/31/14
f 16/33/9 15/29/9 41/32/9 42/53/9
f 12/42/10 27/41/10 48/84/10 40/85/10
f 27/41/10 18/44/10 44/86/10 48/84/10
f 11/28/7 12/27/7 40/83/7 39/82/7
f 18/44/10 21/43/10 45/54/10 44/86/10
o Cylinder
v -0.116490 9.904177 -3.030001
v -0.116490 9.904178 3.030001
v -0.096981 9.902256 -3.030001
v -0.096981 9.902256 3.030001
v -0.078222 9.896565 -3.030001
v -0.078222 9.896565 3.030001
v -0.060933 9.887324 -3.030001
v -0.060933 9.887324 3.030001
v -0.045780 9.874887 -3.030001
v -0.045780 9.874888 3.030001
v -0.033343 9.859735 -3.030001
v -0.033343 9.859735 3.030001
v -0.024102 9.842445 -3.030001
v -0.024102 9.842446 3.030001
v -0.018412 9.823686 -3.030001
v -0.018412 9.823687 3.030001
v -0.016490 9.804177 -3.030001
v -0.016490 9.804177 3.030001
v -0.018412 9.784668 -3.030001
v -0.018412 9.784669 3.030001
v -0.024102 9.765909 -3.030001
v -0.024102 9.765909 3.030001
v -0.033343 9.748620 -3.030001
v -0.033343 9.748620 3.030001
v -0.045780 9.733466 -3.030001
v -0.045780 9.733467 3.030001
v -0.060933 9.721030 -3.030001
v -0.060933 9.721030 3.030001
v -0.078222 9.711789 -3.030001
v -0.078222 9.711789 3.030001
v -0.096981 9.706099 -3.030001
v -0.096981 9.706099 3.030001
v -0.116490 9.704177 -3.030001
v -0.116490 9.704178 3.030001
v -0.136000 9.706099 -3.030001
v -0.136000 9.706099 3.030001
v -0.154759 9.711789 -3.030001
v -0.154759 9.711789 3.030001
v -0.172048 9.721030 -3.030001
v -0.172048 9.721030 3.030001
v -0.187201 9.733466 -3.030001
v -0.187201 9.733467 3.030001
v -0.199637 9.748620 -3.030001
v -0.199637 9.748621 3.030001
v -0.208878 9.765909 -3.030001
v -0.208878 9.765909 3.030001
v -0.214569 9.784668 -3.030001
v -0.214569 9.784669 3.030001
v -0.216490 9.804177 -3.030001
v -0.216490 9.804177 3.030001
v -0.214569 9.823687 -3.030001
v -0.214569 9.823687 3.030001
v -0.208878 9.842445 -3.030001
v -0.208878 9.842446 3.030001
v -0.199637 9.859735 -3.030001
v -0.199637 9.859735 3.030001
v -0.187201 9.874887 -3.030001
v -0.187201 9.874888 3.030001
v -0.172047 9.887324 -3.030001
v -0.172047 9.887324 3.030001
v -0.154759 9.896565 -3.030001
v -0.154759 9.896565 3.030001
v -0.135999 9.902256 -3.030001
v -0.135999 9.902256 3.030001
v 0.116490 9.904177 -3.030001
v 0.116490 9.904178 3.030001
v 0.096981 9.902256 -3.030001
v 0.096981 9.902256 3.030001
v 0.078222 9.896565 -3.030001
v 0.078222 9.896565 3.030001
v 0.060933 9.887324 -3.030001
v 0.060933 9.887324 3.030001
v 0.045780 9.874887 -3.030001
v 0.045780 9.874888 3.030001
v 0.033343 9.859735 -3.030001
v 0.033343 9.859735 3.030001
v 0.024102 9.842445 -3.030001
v 0.024102 9.842446 3.030001
v 0.018412 9.823686 -3.030001
v 0.018412 9.823687 3.030001
v 0.016490 9.804177 -3.030001
v 0.016490 9.804177 3.030001
v 0.018412 9.784668 -3.030001
v 0.018412 9.784669 3.030001
v 0.024102 9.765909 -3.030001
v 0.024102 9.765909 3.030001
v 0.033343 9.748620 -3.030001
v 0.033343 9.748620 3.030001
v 0.045780 9.733466 -3.030001
v 0.045780 9.733467 3.030001
v 0.060933 9.721030 -3.030001
v 0.060933 9.721030 3.030001
v 0.078222 9.711789 -3.030001
v 0.078222 9.711789 3.030001
v 0.096981 9.706099 -3.030001
v 0.096981 9.706099 3.030001
v 0.116490 9.704177 -3.030001
v 0.116490 9.704178 3.030001
v 0.136000 9.706099 -3.030001
v 0.136000 9.706099 3.030001
v 0.154759 9.711789 -3.030001
v 0.154759 9.711789 3.030001
v 0.172048 9.721030 -3.030001
v 0.172048 9.721030 3.030001
v 0.187201 9.733466 -3.030001
v 0.187201 9.733467 3.030001
v 0.199637 9.748620 -3.030001
v 0.199637 9.748621 3.030001
v 0.208878 9.765909 -3.030001
v 0.208878 9.765909 3.030001
v 0.214569 9.784668 -3.030001
v 0.214569 9.784669 3.030001
v 0.216490 9.804177 -3.030001
v 0.216490 9.804177 3.030001
v 0.214569 9.823687 -3.030001
v 0.214569 9.823687 3.030001
v 0.208878 9.842445 -3.030001
v 0.208878 9.842446 3.030001
v 0.199637 9.859735 -3.030001
v 0.199637 9.859735 3.030001
v 0.187201 9.874887 -3.030001
v 0.187201 9.874888 3.030001
v 0.172047 9.887324 -3.030001
v 0.172047 9.887324 3.030001
v 0.154759 9.896565 -3.030001
v 0.154759 9.896565 3.030001
v 0.135999 9.902256 -3.030001
v 0.135999 9.902256 3.030001
vt 0.500000 -0.576667
vt 0.500000 1.576667
vt 0.710047 1.576667
vt 0.710047 -0.576667
vt 0.912023 1.576667
vt 0.912023 -0.576667
vt 1.098164 1.576667
vt 1.098164 -0.576667
vt 1.261318 1.576667
vt 1.261318 -0.576667
vt 1.098164 1.576667
vt 1.098164 -0.576667
vt 0.912022 1.576667
vt 0.912022 -0.576667
vt 0.710047 1.576667
vt 0.710047 -0.576667
vt 0.500000 1.576667
vt 0.500000 -0.576667
vt 0.289952 1.576667
vt 0.289952 -0.576667
vt 0.087977 1.576667
vt 0.087977 -0.576667
vt -0.098164 1.576667
vt -0.098164 -0.576667
vt -0.261319 1.576667
vt -0.261319 -0.576667
vt 1.261318 -0.576667
vt 1.261318 1.576667
vt 1.098164 1.576667
vt 1.098164 -0.576667
vt 0.912022 1.576667
vt 0.912022 -0.576667
vt 0.710047 1.576667
vt 0.710047 -0.576667
vt 0.500000 1.576667
vt 0.500000 -0.576667
vt 0.289952 1.576667
vt 0.289952 -0.576667
vt 0.087977 1.576667
vt 0.087977 -0.576667
vt -0.098165 1.576667
vt -0.098165 -0.576667
vt -0.261319 1.576667
vt -0.261319 -0.576667
vt -0.098164 1.576667
vt -0.098164 -0.576667
vt 0.087978 1.576667
vt 0.087978 -0.576667
vt 0.289953 1.576667
vt 0.289953 -0.576667
vt 0.500001 1.576667
vt 0.500001 -0.576667
vt 0.710048 1.576667
vt 0.710048 -0.576667
vt 0.912023 1.576667
vt 0.912023 -0.576667
vt 1.098165 1.576667
vt 1.098165 -0.576667
vt 1.261319 1.576667
vt 1.261319 -0.576667
vt -0.261318 -0.576667
vt -0.261318 1.576667
vt -0.098163 1.576667
vt -0.098163 -0.576667
vt 0.087979 1.576667
vt 0.087979 -0.576667
vt 0.710047 1.555979
vt 0.289954 1.555979
vt 0.087979 1.494711
vt -0.098163 1.395216
vt -0.261318 1.261319
vt -0.395215 1.098165
vt -0.494710 0.912023
vt -0.555979 0.710048
vt -0.576667 0.500001
vt -0.555979 0.289953
vt -0.494711 0.087978
vt -0.395216 -0.098164
vt -0.261319 -0.261318
vt -0.098165 -0.395216
vt 0.087977 -0.494711
vt 0.289952 -0.555979
vt 0.500000 -0.576667
vt 0.710047 -0.555979
vt 0.912022 -0.494711
vt 1.098164 -0.395216
vt 1.261318 -0.261319
vt 1.395216 -0.098164
vt 1.494711 0.087977
vt 1.555979 0.289952
vt 1.576667 0.500000
vt 1.555979 0.710047
vt 1.494710 0.912022
vt 1.395216 1.098164
vt 1.261318 1.261318
vt 1.098164 1.395216
vt 0.912023 1.494710
vt 0.289954 1.576667
vt 0.289954 -0.576667
vt 0.500000 1.576667
vt 0.710047 1.555979
vt 0.912023 1.494710
vt 1.098164 1.395216
vt 1.261318 1.261318
vt 1.395216 1.098164
vt 1.494710 0.912022
vt 1.555979 0.710047
vt 1.576667 0.500000
vt 1.555979 0.289952
vt 1.494711 0.087977
vt 1.395216 -0.098164
vt 1.261318 -0.261319
vt 1.098164 -0.395216
vt 0.912022 -0.494711
vt 0.710047 -0.555979
vt 0.289952 -0.555979
vt 0.087977 -0.494711
vt -0.098165 -0.395216
vt -0.261319 -0.261318
vt -0.395216 -0.098164
vt -0.494711 0.087978
vt -0.555979 0.289953
vt -0.576667 0.500001
vt -0.555979 0.710048
vt -0.494710 0.912023
vt -0.395215 1.098165
vt -0.261318 1.261319
vt -0.098163 1.395216
vt 0.087979 1.494711
vt 0.289954 1.555979
vt 0.500000 -0.576667
vt 0.710047 -0.576667
vt 0.710047 1.576667
vt 0.500000 1.576667
vt 0.912023 -0.576667
vt 0.912023 1.576667
vt 1.098164 -0.576667
vt 1.098164 1.576667
vt 1.261318 -0.576667
vt 1.261318 1.576667
vt 1.098164 -0.576667
vt 1.098164 1.576667
vt 0.912022 -0.576667
vt 0.912022 1.576667
vt 0.710047 -0.576667
vt 0.710047 1.576667
vt 0.500000 -0.576667
vt 0.500000 1.576667
vt 0.289952 -0.576667
vt 0.289952 1.576667
vt 0.087977 -0.576667
vt 0.087977 1.576667
vt -0.098164 -0.576667
vt -0.098164 1.576667
vt -0.261319 -0.576667
vt -0.261319 1.576667
vt 1.261318 -0.576667
vt 1.098164 -0.576667
vt 1.098164 1.576667
vt 1.261318 1.576667
vt 0.912022 -0.576667
vt 0.912022 1.576667
vt 0.710047 -0.576667
vt 0.710047 1.576667
vt 0.500000 -0.576667
vt 0.500000 1.576667
vt 0.289952 -0.576667
vt 0.289952 1.576667
vt 0.087977 -0.576667
vt 0.087977 1.576667
vt -0.098165 -0.576667
vt -0.098165 1.576667
vt -0.261319 -0.576667
vt -0.261319 1.576667
vt -0.098164 -0.576667
vt -0.098164 1.576667
vt 0.087978 -0.576667
vt 0.087978 1.576667
vt 0.289953 -0.576667
vt 0.289953 1.576667
vt 0.500001 -0.576667
vt 0.500001 1.576667
vt 0.710048 -0.576667
vt 0.710048 1.576667
vt 0.912023 -0.576667
vt 0.912023 1.576667
vt 1.098165 -0.576667
vt 1.098165 1.576667
vt 1.261319 -0.576667
vt 1.261319 1.576667
vt -0.261318 -0.576667
vt -0.098163 -0.576667
vt -0.098163 1.576667
vt -0.261318 1.576667
vt 0.087979 -0.576667
vt 0.087979 1.576667
vt 0.710047 1.555979
vt 0.912023 1.494710
vt 1.098164 1.395216
vt 1.261318 1.261318
vt 1.395216 1.098164
vt 1.494710 0.912022
vt 1.555979 0.710047
vt 1.576667 0.500000
vt 1.555979 0.289952
vt 1.494711 0.087977
vt 1.395216 -0.098164
vt 1.261318 -0.261319
vt 1.098164 -0.395216
vt 0.912022 -0.494711
vt 0.710047 -0.555979
vt 0.500000 -0.576667
vt 0.289952 -0.555979
vt 0.087977 -0.494711
vt -0.098165 -0.395216
vt -0.261319 -0.261318
vt -0.395216 -0.098164
vt -0.494711 0.087978
vt -0.555979 0.289953
vt -0.576667 0.500001
vt -0.555979 0.710048
vt -0.494710 0.912023
vt -0.395215 1.098165
vt -0.261318 1.261319
vt -0.098163 1.395216
vt 0.087979 1.494711
vt 0.289954 1.555979
vt 0.289954 -0.576667
vt 0.289954 1.576667
vt 0.500000 1.576667
vt 0.289954 1.555979
vt 0.087979 1.494711
vt -0.098163 1.395216
vt -0.261318 1.261319
vt -0.395215 1.098165
vt -0.494710 0.912023
vt -0.555979 0.710048
vt -0.576667 0.500001
vt -0.555979 0.289953
vt -0.494711 0.087978
vt -0.395216 -0.098164
vt -0.261319 -0.261318
vt -0.098165 -0.395216
vt 0.087977 -0.494711
vt 0.289952 -0.555979
vt 0.710047 -0.555979
vt 0.912022 -0.494711
vt 1.098164 -0.395216
vt 1.261318 -0.261319
vt 1.395216 -0.098164
vt 1.494711 0.087977
vt 1.555979 0.289952
vt 1.576667 0.500000
vt 1.555979 0.710047
vt 1.494710 0.912022
vt 1.395216 1.098164
vt 1.261318 1.261318
vt 1.098164 1.395216
vt 0.912023 1.494710
vt 0.710047 1.555979
vn 0.0980 0.9952 -0.0000
vn 0.2903 0.9569 0.0000
vn 0.4714 0.8819 0.0000
vn 0.6344 0.7730 -0.0000
vn 0.7730 0.6344 0.0000
vn 0.8819 0.4714 -0.0000
vn 0.9569 0.2903 -0.0000
vn 0.9952 0.0980 -0.0000
vn 0.9952 -0.0980 0.0000
vn 0.9569 -0.2903 0.0000
vn 0.8819 -0.4714 0.0000
vn 0.7730 -0.6344 0.0000
vn 0.6344 -0.7730 0.0000
vn 0.4714 -0.8819 0.0000
vn 0.2903 -0.9569 0.0000
vn 0.0980 -0.9952 0.0000
vn -0.0980 -0.9952 0.0000
vn -0.2903 -0.9569 0.0000
vn -0.4714 -0.8819 0.0000
vn -0.6344 -0.7730 0.0000
vn -0.7730 -0.6344 0.0000
vn -0.8819 -0.4714 0.0000
vn -0.9569 -0.2903 0.0000
vn -0.9952 -0.0980 0.0000
vn -0.9952 0.0980 0.0000
vn -0.9569 0.2903 -0.0000
vn -0.8819 0.4714 -0.0000
vn -0.7730 0.6344 0.0000
vn -0.6344 0.7730 0.0000
vn -0.4714 0.8819 0.0000
vn -0.0000 0.0000 1.0000
vn -0.2903 0.9569 0.0000
vn -0.0980 0.9952 -0.0000
vn 0.0000 0.0000 -1.0000
g Cylinder_Cylinder_Matal_solid_paint_white
usemtl Matal_solid_paint_white
s off
f 49/87/21 50/88/21 52/89/21 51/90/21
f 51/90/22 52/89/22 54/91/22 53/92/22
f 53/92/23 54/91/23 56/93/23 55/94/23
f 55/94/24 56/93/24 58/95/24 57/96/24
f 57/96/25 58/95/25 60/97/25 59/98/25
f 59/98/26 60/97/26 62/99/26 61/100/26
f 61/100/27 62/99/27 64/101/27 63/102/27
f 63/102/28 64/101/28 66/103/28 65/104/28
f 65/104/29 66/103/29 68/105/29 67/106/29
f 67/106/30 68/105/30 70/107/30 69/108/30
f 69/108/31 70/107/31 72/109/31 71/110/31
f 71/110/32 72/109/32 74/111/32 73/112/32
f 73/113/33 74/114/33 76/115/33 75/116/33
f 75/116/34 76/115/34 78/117/34 77/118/34
f 77/118/35 78/117/35 80/119/35 79/120/35
f 79/120/36 80/119/36 82/121/36 81/122/36
f 81/122/37 82/121/37 84/123/37 83/124/37
f 83/124/38 84/123/38 86/125/38 85/126/38
f 85/126/39 86/125/39 88/127/39 87/128/39
f 87/128/40 88/127/40 90/129/40 89/130/40
f 89/130/41 90/129/41 92/131/41 91/132/41
f 91/132/42 92/131/42 94/133/42 93/134/42
f 93/134/43 94/133/43 96/135/43 95/136/43
f 95/136/44 96/135/44 98/137/44 97/138/44
f 97/138/45 98/137/45 100/139/45 99/140/45
f 99/140/46 100/139/46 102/141/46 101/142/46
f 101/142/47 102/141/47 104/143/47 103/144/47
f 103/144/48 104/143/48 106/145/48 105/146/48
f 105/147/49 106/148/49 108/149/49 107/150/49
f 107/150/50 108/149/50 110/151/50 109/152/50
f 52/153/51 50/88/51 112/154/51 110/155/51 108/156/51 106/157/51 104/158/51 102/159/51 100/160/51 98/161/51 96/162/51 94/163/51 92/164/51 90/165/51 88/166/51 86/167/51 84/168/51 82/169/51 80/170/51 78/171/51 76/172/51 74/173/51 72/174/51 70/175/51 68/176/51 66/177/51 64/178/51 62/179/51 60/180/51 58/181/51 56/182/51 54/183/51
f 109/152/52 110/151/52 112/184/52 111/185/52
f 111/185/53 112/184/53 50/88/53 49/87/53
f 49/186/54 51/187/54 53/188/54 55/189/54 57/190/54 59/191/54 61/192/54 63/193/54 65/194/54 67/195/54 69/196/54 71/197/54 73/198/54 75/199/54 77/200/54 79/201/54 81/122/54 83/202/54 85/203/54 87/204/54 89/205/54 91/206/54 93/207/54 95/208/54 97/209/54 99/210/54 101/211/54 103/212/54 105/213/54 107/214/54 109/215/54 111/216/54
f 113/217/53 115/218/53 116/219/53 114/220/53
f 115/218/52 117/221/52 118/222/52 116/219/52
f 117/221/50 119/223/50 120/224/50 118/222/50
f 119/223/49 121/225/49 122/226/49 120/224/49
f 121/225/48 123/227/48 124/228/48 122/226/48
f 123/227/47 125/229/47 126/230/47 124/228/47
f 125/229/46 127/231/46 128/232/46 126/230/46
f 127/231/45 129/233/45 130/234/45 128/232/45
f 129/233/44 131/235/44 132/236/44 130/234/44
f 131/235/43 133/237/43 134/238/43 132/236/43
f 133/237/42 135/239/42 136/240/42 134/238/42
f 135/239/41 137/241/41 138/242/41 136/240/41
f 137/243/40 139/244/40 140/245/40 138/246/40
f 139/244/39 141/247/39 142/248/39 140/245/39
f 141/247/38 143/249/38 144/250/38 142/248/38
f 143/249/37 145/251/37 146/252/37 144/250/37
f 145/251/36 147/253/36 148/254/36 146/252/36
f 147/253/35 149/255/35 150/256/35 148/254/35
f 149/255/34 151/257/34 152/258/34 150/256/34
f 151/257/33 153/259/33 154/260/33 152/258/33
f 153/259/32 155/261/32 156/262/32 154/260/32
f 155/261/31 157/263/31 158/264/31 156/262/31
f 157/263/30 159/265/30 160/266/30 158/264/30
f 159/265/29 161/267/29 162/268/29 160/266/29
f 161/267/28 163/269/28 164/270/28 162/268/28
f 163/269/27 165/271/27 166/272/27 164/270/27
f 165/271/26 167/273/26 168/274/26 166/272/26
f 167/273/25 169/275/25 170/276/25 168/274/25
f 169/277/24 171/278/24 172/279/24 170/280/24
f 171/278/23 173/281/23 174/282/23 172/279/23
f 116/283/51 118/284/51 120/285/51 122/286/51 124/287/51 126/288/51 128/289/51 130/290/51 132/291/51 134/292/51 136/293/51 138/294/51 140/295/51 142/296/51 144/297/51 146/298/51 148/299/51 150/300/51 152/301/51 154/302/51 156/303/51 158/304/51 160/305/51 162/306/51 164/307/51 166/308/51 168/309/51 170/310/51 172/311/51 174/312/51 176/313/51 114/220/51
f 173/281/22 175/314/22 176/315/22 174/282/22
f 175/314/21 113/217/21 114/220/21 176/315/21
f 113/316/54 175/317/54 173/318/54 171/319/54 169/320/54 167/321/54 165/322/54 163/323/54 161/324/54 159/325/54 157/326/54 155/327/54 153/328/54 151/329/54 149/330/54 147/331/54 145/251/54 143/332/54 141/333/54 139/334/54 137/335/54 135/336/54 133/337/54 131/338/54 129/339/54 127/340/54 125/341/54 123/342/54 121/343/54 119/344/54 117/345/54 115/346/54
