# Blender v2.90.1 OBJ File: 'wall_door.blend'
# www.blender.org
mtllib wall_door.mtl
o Cube.001_Cube.004
v -0.006512 -0.000554 5.590624
v -0.006512 -0.000554 -5.649819
v 0.196455 -0.000554 5.590624
v 0.196455 -0.000554 -5.649734
v -0.006512 1.200054 5.590624
v -0.006512 1.200054 -5.649819
v 0.196455 1.200054 -5.649734
v 0.196455 1.200054 5.590624
v -0.006512 -0.000554 -2.000222
v 0.196455 -0.000554 -2.000164
v 0.196455 1.200054 -2.000164
v -0.006512 1.200054 -2.000222
v 0.196455 -0.000554 -5.009874
v -0.006512 1.200054 -5.009955
v -0.006512 -0.000554 -5.009955
v 0.196455 1.200054 -5.009874
vt 0.474915 0.582807
vt 0.466027 0.582807
vt 0.466027 0.946317
vt 0.474915 0.946317
vt 0.466027 0.700191
vt 0.466027 0.642654
vt 0.474915 0.642654
vt 0.474915 0.700191
vt 0.376101 0.700191
vt 0.376101 0.642654
vt 0.739612 0.642654
vt 0.739612 0.700191
vt 0.474915 0.700191
vt 0.474915 0.642654
vt 0.466027 0.642654
vt 0.466027 0.700191
vt 0.231971 0.700191
vt 0.231971 0.642654
vt 0.201330 0.642654
vt 0.201330 0.700191
vt 0.739612 0.700191
vt 0.739612 0.642654
vt 0.376101 0.642654
vt 0.376101 0.700191
vt 0.466026 0.438677
vt 0.231971 0.642654
vt 0.474915 0.408035
vt 0.466027 0.408035
vt 0.474915 0.438677
vt 0.201330 0.700191
vt 0.201330 0.642654
vt 0.231971 0.700191
vn 0.0000 -1.0000 0.0000
vn 0.0000 0.0000 1.0000
vn 1.0000 0.0000 0.0000
vn 0.0004 0.0000 -1.0000
vn -1.0000 0.0000 0.0000
vn -0.0004 0.0000 1.0000
vn 0.0003 0.0000 -1.0000
usemtl wall_blue_chipped
s off
f 9/1/1 10/2/1 3/3/1 1/4/1
f 3/5/2 8/6/2 5/7/2 1/8/2
f 10/9/3 11/10/3 8/11/3 3/12/3
f 2/13/4 6/14/4 7/15/4 4/16/4
f 15/17/5 14/18/5 6/19/5 2/20/5
f 1/21/5 5/22/5 12/23/5 9/24/5
f 14/18/6 15/17/6 13/25/6 16/26/6
f 2/27/1 4/28/1 13/25/1 15/29/1
f 4/30/3 7/31/3 16/26/3 13/32/3
f 9/1/7 12/23/7 11/10/7 10/2/7
o wall.001_Cube.003
v -0.006542 1.198648 5.585289
v -0.006542 5.983369 5.585289
v -0.006542 1.198648 -5.655236
v -0.006542 5.983369 -5.655236
v 0.197068 1.198648 5.585289
v 0.197068 5.983369 5.585289
v 0.197068 1.198648 -5.655236
v 0.197068 5.983369 -5.655236
v -0.006542 5.983369 -1.996766
v 0.197068 1.198648 -1.996766
v -0.006542 1.198648 -1.996767
v 0.197068 5.983369 -1.996767
v -0.006542 5.983369 -5.000811
v 0.197068 1.198648 -5.000811
v -0.006542 1.198648 -5.000811
v 0.197068 5.983369 -5.000811
v -0.006542 4.704285 -5.655236
v 0.197068 4.704285 -5.655236
v 0.197068 4.704285 5.585289
v -0.006542 4.704285 5.585289
v 0.197068 4.704285 -1.996767
v -0.006542 4.704285 -1.996767
v 0.197068 4.704285 -5.000811
v -0.006542 4.704285 -5.000811
vt 0.398195 1.588810
vt 0.398195 3.188686
vt 0.601805 3.188686
vt 0.601805 1.588810
vt 0.601805 5.577838
vt 0.398195 5.577838
vt 0.398195 6.112235
vt 0.601805 6.112235
vt 0.398195 5.577838
vt 0.601805 5.577838
vt 0.601805 6.112235
vt 0.398195 6.112235
vt 0.601805 1.588810
vt 0.601805 3.188686
vt 0.398195 3.188686
vt 0.398195 1.588810
vt 5.577838 1.588810
vt 6.112235 1.588810
vt 6.112235 -2.796035
vt 5.577838 -2.796035
vt 3.124765 1.588810
vt 3.124765 3.188686
vt -5.128290 3.188686
vt -5.128290 1.588810
vt 5.577838 1.588810
vt 5.577838 3.188686
vt -5.128290 1.588810
vt 3.124766 1.588810
vt 3.124765 -2.796035
vt -5.128290 -2.796035
vt 0.398195 -5.128290
vt 0.601805 -5.128290
vt 0.601805 3.124765
vt 0.398195 3.124766
vt 0.601805 -5.128290
vt 0.398195 -5.128290
vt 0.398195 3.124765
vt 0.601805 3.124766
vt 6.112235 1.588810
vt 6.112235 3.188686
vt 3.124765 -2.796035
vt 3.124765 3.188686
vt 5.577838 3.188686
vt 6.112235 -2.796035
vt 5.577838 -2.796035
vt -5.128290 3.188686
vt -5.128290 -2.796035
vt 6.112235 3.188686
vt 0.601805 -2.796035
vt 0.398195 -2.796035
vt 0.398195 -2.796035
vt 0.601805 -2.796035
vn 0.0000 0.0000 -1.0000
vn 0.0000 -1.0000 0.0000
vn 0.0000 1.0000 0.0000
vn 0.0000 0.0000 1.0000
vn -1.0000 0.0000 0.0000
vn 1.0000 0.0000 0.0000
usemtl White_wall.001
s off
f 33/33/8 20/34/8 24/35/8 34/36/8
f 30/37/9 31/38/9 19/39/9 23/40/9
f 29/41/10 32/42/10 24/43/10 20/44/10
f 35/45/11 22/46/11 18/47/11 36/48/11
f 40/49/12 33/50/12 19/51/12 31/52/12
f 37/53/13 28/54/13 22/55/13 35/56/13
f 39/57/13 32/58/13 28/54/13 37/53/13
f 36/59/12 38/60/12 27/61/12 17/62/12
f 18/63/10 22/64/10 28/65/10 25/66/10
f 21/67/9 17/68/9 27/69/9 26/70/9
f 34/71/13 24/72/13 32/58/13 39/57/13
f 38/60/9 40/49/9 39/57/9 37/53/9
f 25/66/10 28/65/10 32/42/10 29/41/10
f 37/53/8 26/73/8 27/69/8 38/60/8
f 25/74/12 29/75/12 40/49/12 38/60/12
f 23/76/13 34/71/13 39/57/13 30/77/13
f 18/78/12 25/74/12 38/60/12 36/59/12
f 39/57/11 40/49/11 31/38/11 30/77/11
f 26/73/13 37/53/13 35/56/13 21/79/13
f 29/75/12 20/80/12 33/50/12 40/49/12
f 21/81/11 35/45/11 36/48/11 17/82/11
f 19/83/8 33/33/8 34/36/8 23/84/8
o door_Cube
v 0.000000 0.000000 -2.109489
v 0.200000 0.000000 -2.109489
v 0.200000 0.000000 -4.901460
v 0.000000 0.000000 -4.901460
v 0.200000 4.615809 -2.109489
v 0.000000 4.615809 -2.109489
v 0.200000 4.615809 -4.901460
v 0.000000 4.615809 -4.901460
v 0.000000 0.000000 -2.667883
v 0.200000 0.000000 -2.667883
v 0.000000 4.615809 -2.667883
v 0.200000 4.615809 -2.667883
v 0.200000 0.000000 -3.002920
v 0.000000 4.615809 -3.002920
v 0.000000 0.000000 -3.002920
v 0.200000 4.615809 -3.002920
v 0.200000 3.911331 -2.109489
v 0.000000 3.911331 -2.109489
v 0.200000 3.911331 -4.901460
v 0.000000 3.911331 -4.901460
v 0.200000 3.911331 -2.667883
v 0.000000 3.911331 -2.667883
v 0.200000 3.911331 -3.002920
v 0.000000 3.911331 -3.002920
v 0.200000 1.368966 -2.109489
v 0.000000 1.368966 -2.109489
v 0.200000 1.368966 -4.901460
v 0.000000 1.368966 -4.901460
v 0.200000 1.368966 -2.667883
v 0.000000 1.368966 -2.667883
v 0.200000 1.368966 -3.002920
v 0.000000 1.368966 -3.002920
v 0.071259 3.911331 -2.667883
v 0.071259 3.911331 -3.002920
v 0.128741 3.911331 -3.002920
v 0.128741 3.911331 -2.667883
v 0.128741 1.368966 -2.667883
v 0.071259 1.368966 -2.667883
v 0.128741 1.368966 -3.002920
v 0.071259 1.368966 -3.002920
v 0.000000 0.000000 -2.240876
v 0.200000 4.615809 -2.240876
v 0.200000 0.000000 -2.240876
v 0.000000 4.615809 -2.240876
v 0.000000 3.911331 -2.240876
v 0.200000 3.911331 -2.240876
v 0.200000 1.368966 -2.240876
v 0.000000 1.368966 -2.240876
v 0.200000 0.000000 -2.388686
v 0.000000 4.615809 -2.388686
v 0.000000 3.911331 -2.388686
v 0.000000 1.368966 -2.388686
v 0.000000 0.000000 -2.388686
v 0.200000 4.615809 -2.388686
v 0.200000 3.911331 -2.388686
v 0.200000 1.368966 -2.388686
v 0.200000 2.831922 -2.109489
v 0.000000 2.831922 -2.109489
v 0.200000 2.831922 -2.667883
v 0.000000 2.831922 -2.667883
v 0.128741 2.831922 -2.667883
v 0.071259 2.831922 -2.667883
v 0.200000 2.831922 -2.240876
v 0.000000 2.831922 -2.240876
v 0.200000 2.831922 -2.388686
v 0.000000 2.831922 -2.388686
v 0.200000 2.287438 -2.109489
v 0.000000 2.287438 -2.109489
v 0.200000 2.287438 -2.667883
v 0.000000 2.287438 -2.667883
v 0.128741 2.287438 -2.667883
v 0.071259 2.287438 -2.667883
v 0.200000 2.287438 -2.240876
v 0.000000 2.287438 -2.240876
v 0.200000 2.287438 -2.388686
v 0.000000 2.287438 -2.388686
v 0.200000 2.703321 -2.275787
v 0.200000 2.703321 -2.353775
v 0.200000 2.416039 -2.275787
v 0.200000 2.416039 -2.353775
v 0.117886 2.703321 -2.275787
v 0.117886 2.703321 -2.353775
v 0.117886 2.416039 -2.275787
v 0.117886 2.416039 -2.353775
v 0.000000 2.730214 -2.268486
v 0.000000 2.730214 -2.361075
v 0.000000 2.389146 -2.268486
v 0.000000 2.389146 -2.361075
v 0.099138 2.730214 -2.268486
v 0.099138 2.730214 -2.361075
v 0.099138 2.389146 -2.268486
v 0.099138 2.389146 -2.361075
vt 0.400000 -0.467529
vt 0.600000 -0.467529
vt 0.600000 -0.598916
vt 0.400000 -0.598916
vt 0.294515 1.516259
vt 0.294515 2.220737
vt 2.193055 2.220737
vt 2.193055 1.516259
vt -0.467529 1.516259
vt -0.467529 2.220737
vt -0.598916 2.220737
vt -0.598916 1.516259
vt 0.294515 1.516259
vt 0.294515 2.220737
vt -0.040522 2.220737
vt -0.040522 1.516259
vt -0.319719 1.516259
vt -0.319719 2.220737
vt -0.040522 2.220737
vt -0.040522 1.516259
vt 0.400000 0.294515
vt 0.600000 0.294515
vt 0.600000 -0.040522
vt 0.400000 -0.040522
vt 0.400000 2.193055
vt 0.600000 2.193055
vt 2.193055 1.516259
vt 2.193055 2.220737
vt 0.400000 1.516259
vt 0.400000 -1.026106
vt 0.471259 -1.026106
vt 0.471259 1.516259
vt 2.193055 -1.026106
vt 0.294515 -1.026106
vt -0.319719 0.436850
vt -0.040522 0.436850
vt 0.400000 0.294515
vt 0.400000 -0.040522
vt 0.471259 -0.040522
vt 0.471259 0.294515
vt -0.467529 0.436850
vt -0.598916 0.436850
vt 0.294515 -1.026106
vt 2.193055 -1.026106
vt 0.294515 -2.395072
vt 2.193055 -2.395072
vt -0.467529 -2.395072
vt -0.467529 -1.026106
vt -0.598916 -1.026106
vt -0.598916 -2.395072
vt 0.294515 -2.395072
vt -0.040522 -1.026106
vt -0.040522 -2.395072
vt -0.319719 -2.395072
vt -0.319719 -1.026106
vt -0.040522 -1.026106
vt -0.040522 -2.395072
vt 2.193055 -2.395072
vt 0.400000 -0.040522
vt 0.400000 0.294515
vt 0.471259 0.294515
vt 0.471259 -0.040522
vt 0.400000 0.436850
vt 0.400000 1.516259
vt 0.471259 1.516259
vt 0.471259 0.436850
vt 0.600000 0.294515
vt 0.600000 -0.040522
vt 0.528741 -0.040522
vt 0.528741 0.294515
vt 0.600000 -0.040522
vt 0.600000 0.294515
vt 0.528741 0.294515
vt 0.528741 -0.040522
vt 0.600000 -1.026106
vt 0.600000 1.516259
vt 0.528741 1.516259
vt 0.528741 -1.026106
vt 0.600000 -0.107634
vt 0.600000 -1.026106
vt 0.528741 -1.026106
vt 0.528741 -0.107634
vt 0.528741 0.436850
vt 0.528741 1.516259
vt -0.598916 -2.395072
vt -0.598916 -1.026106
vt -0.467529 -1.026106
vt -0.467529 -2.395072
vt -0.319719 -2.395072
vt -0.319719 -1.026106
vt -0.319719 0.436850
vt -0.319719 1.516259
vt -0.598916 0.436850
vt -0.598916 1.516259
vt -0.467529 1.516259
vt -0.467529 0.436850
vt -0.598916 2.220737
vt -0.467529 2.220737
vt -0.319719 2.220737
vt 0.400000 -0.319719
vt 0.600000 -0.319719
vt -0.040522 0.436850
vt -0.467529 -0.107634
vt -0.467529 0.436850
vt -0.467529 -0.107634
vt -0.040522 -0.107634
vt -0.319719 -0.107634
vt -0.598916 -0.107634
vt -0.467529 -0.107634
vt -0.467529 -0.107634
vt -0.467529 0.436850
vt 0.471259 -0.107634
vt 0.600000 1.516259
vt 0.600000 0.436850
vt 0.400000 -0.107634
vt -0.598916 -0.107634
vt -0.319719 -0.107634
vt -0.040522 -0.107634
vt 0.400000 -1.026106
vt 0.471259 -1.026106
vt -0.319719 -0.107634
vt -0.319719 -0.107634
vt -0.467529 -0.107634
vt -0.319719 0.436850
vt -0.319719 0.436850
vt -0.467529 0.436850
vt -0.319719 -0.107634
vt -0.467529 -0.107634
vt -0.319719 -0.107634
vt -0.319719 0.436850
vt -0.467529 0.436850
vt -0.319719 0.436850
vn 0.0000 -1.0000 0.0000
vn -1.0000 0.0000 0.0000
vn 1.0000 0.0000 0.0000
vn 0.0000 0.0000 1.0000
vn 0.0000 1.0000 0.0000
vn 0.0000 0.0000 -1.0000
usemtl Worn_Painted_Metal
s off
f 81/85/14 83/86/14 42/87/14 41/88/14
f 64/89/15 54/90/15 48/91/15 60/92/15
f 86/93/16 82/94/16 45/95/16 57/96/16
f 63/97/16 56/98/16 52/99/16 61/100/16
f 91/101/15 90/102/15 51/103/15 62/104/15
f 55/105/14 53/106/14 50/107/14 49/108/14
f 44/109/14 43/110/14 53/106/14 55/105/14
f 59/111/16 47/112/16 56/98/16 63/97/16
f 62/104/15 51/103/15 54/90/15 64/89/15
f 64/113/17 72/114/17 80/115/17 74/116/17
f 67/117/16 59/111/16 63/97/16 71/118/16
f 106/119/15 91/101/15 62/104/15 100/120/15
f 72/121/18 70/122/18 78/123/18 80/124/18
f 103/125/16 86/93/16 57/96/16 97/126/16
f 72/127/15 64/89/15 60/92/15 68/128/15
f 55/129/15 72/127/15 68/128/15 44/130/15
f 83/131/16 87/132/16 65/133/16 42/134/16
f 53/135/16 71/118/16 69/136/16 50/137/16
f 93/138/15 92/139/15 70/140/15 49/141/15
f 43/142/16 67/117/16 71/118/16 53/135/16
f 49/141/15 70/140/15 72/127/15 55/129/15
f 62/143/14 64/144/14 74/145/14 73/146/14
f 100/147/19 62/148/19 73/149/19 102/150/19
f 63/151/14 61/152/14 76/153/14 75/154/14
f 69/155/18 71/156/18 79/157/18 77/158/18
f 71/159/17 63/160/17 75/161/17 79/162/17
f 109/163/19 69/164/19 77/165/19 111/166/19
f 79/162/17 75/161/17 74/116/17 80/115/17
f 101/167/19 102/150/19 73/149/19 76/168/19
f 79/157/18 80/124/18 78/123/18 77/158/18
f 73/146/14 74/145/14 75/154/14 76/153/14
f 41/169/15 66/170/15 88/171/15 81/172/15
f 89/173/16 96/174/16 87/132/16 83/131/16
f 105/175/16 95/176/16 86/93/16 103/125/16
f 98/177/15 58/178/15 85/179/15 104/180/15
f 58/178/15 46/181/15 84/182/15 85/179/15
f 95/176/16 94/183/16 82/94/16 86/93/16
f 93/184/14 89/185/14 83/86/14 81/85/14
f 49/108/14 50/107/14 89/185/14 93/184/14
f 61/100/16 52/99/16 94/183/16 95/176/16
f 99/186/16 61/100/16 95/176/16 105/175/16
f 50/137/16 69/136/16 96/174/16 89/173/16
f 81/172/15 88/171/15 92/139/15 93/138/15
f 104/180/15 85/179/15 91/101/15 106/119/15
f 85/179/15 84/182/15 90/102/15 91/101/15
f 114/187/15 104/180/15 125/188/15 127/189/15
f 109/190/16 99/186/16 105/175/16 115/191/16
f 108/192/15 98/177/15 104/180/15 114/187/15
f 103/125/16 113/193/16 119/194/16 117/195/16
f 111/166/19 112/196/19 102/150/19 101/167/19
f 61/197/19 99/198/19 101/167/19 76/168/19
f 110/199/19 100/147/19 102/150/19 112/196/19
f 113/193/16 103/125/16 97/126/16 107/200/16
f 116/201/15 106/119/15 100/120/15 110/202/15
f 92/139/15 116/201/15 110/202/15 70/140/15
f 87/132/16 113/193/16 107/200/16 65/133/16
f 70/203/19 110/199/19 112/196/19 78/204/19
f 77/165/19 78/204/19 112/196/19 111/166/19
f 96/174/16 115/191/16 113/193/16 87/132/16
f 66/170/15 108/192/15 114/187/15 88/171/15
f 69/136/16 109/190/16 115/191/16 96/174/16
f 88/171/15 114/187/15 116/201/15 92/139/15
f 99/198/19 109/163/19 111/166/19 101/167/19
f 119/194/18 120/205/18 124/206/18 123/207/18
f 105/175/16 103/125/16 117/195/16 118/208/16
f 113/193/16 115/191/16 120/205/16 119/194/16
f 115/191/16 105/175/16 118/208/16 120/205/16
f 124/206/16 122/209/16 121/210/16 123/207/16
f 117/195/19 119/194/19 123/207/19 121/210/19
f 120/205/17 118/208/17 122/209/17 124/206/17
f 118/208/14 117/195/14 121/210/14 122/209/14
f 128/211/18 127/189/18 131/212/18 132/213/18
f 116/201/15 114/187/15 127/189/15 128/211/15
f 104/180/15 106/119/15 126/214/15 125/188/15
f 106/119/15 116/201/15 128/211/15 126/214/15
f 131/212/15 129/215/15 130/216/15 132/213/15
f 127/189/19 125/188/19 129/215/19 131/212/19
f 126/214/17 128/211/17 132/213/17 130/216/17
f 125/188/14 126/214/14 130/216/14 129/215/14
o door.001_Cube.002
v 0.000000 0.000000 -2.000754
v 0.000000 4.700912 -2.000754
v 0.000000 0.000000 -5.000754
v 0.000000 4.700912 -5.000754
v 0.200000 0.000000 -2.000754
v 0.200000 4.700912 -2.000754
v 0.200000 0.000000 -5.000754
v 0.200000 4.700912 -5.000754
v 0.000000 0.000000 -2.110243
v 0.000000 4.700912 -2.110243
v 0.200000 0.000000 -2.110243
v 0.200000 4.700912 -2.110243
v 0.000000 4.700912 -4.902214
v 0.200000 0.000000 -4.902214
v 0.000000 0.000000 -4.902214
v 0.200000 4.700912 -4.902214
v 0.000000 4.615809 -2.000754
v 0.000000 4.615809 -5.000754
v 0.200000 4.615809 -5.000754
v 0.200000 4.615809 -2.000754
v 0.200000 4.615809 -2.110243
v 0.000000 4.615809 -2.110243
v 0.200000 4.615809 -4.902214
v 0.000000 4.615809 -4.902214
v 0.200000 4.700912 -2.668638
v 0.000000 4.700912 -2.668638
v 0.000000 4.615809 -2.668638
v 0.200000 4.615809 -2.668638
v 0.000000 4.700912 -3.003674
v 0.000000 4.615809 -3.003674
v 0.200000 4.700912 -3.003674
v 0.200000 4.615809 -3.003674
v 0.000000 3.911331 -5.000754
v 0.200000 3.911331 -5.000754
v 0.200000 3.911331 -2.000754
v 0.200000 3.911331 -2.110243
v 0.000000 3.911331 -2.110243
v 0.200000 3.911331 -4.902214
v 0.000000 3.911331 -4.902214
v 0.000000 3.911331 -2.000754
v 0.000000 1.368966 -5.000754
v 0.200000 1.368966 -5.000754
v 0.200000 1.368966 -2.000754
v 0.200000 1.368966 -2.110243
v 0.000000 1.368966 -2.110243
v 0.200000 1.368966 -4.902214
v 0.000000 1.368966 -4.902214
v 0.000000 1.368966 -2.000754
vt 0.660547 0.578058
vt 0.660547 0.581380
vt 0.664393 0.581380
vt 0.664393 0.578058
vt 0.597815 0.578058
vt 0.597815 0.581380
vt 0.605621 0.581380
vt 0.605621 0.578058
vt 0.551579 0.578058
vt 0.551579 0.581380
vt 0.547305 0.581380
vt 0.547305 0.578058
vt 0.605621 0.578058
vt 0.605621 0.581380
vt 0.597815 0.581380
vt 0.597815 0.578058
vt 0.597815 0.479553
vt 0.605621 0.479553
vt 0.605621 0.475280
vt 0.597815 0.475280
vt 0.605621 0.479553
vt 0.597815 0.479553
vt 0.597815 0.475280
vt 0.605621 0.475280
vt 0.605621 0.501347
vt 0.597815 0.501347
vt 0.573372 0.578058
vt 0.573372 0.581380
vt 0.547305 0.578058
vt 0.547305 0.581380
vt 0.551579 0.581380
vt 0.551579 0.578058
vt 0.664393 0.578058
vt 0.664393 0.581380
vt 0.660547 0.581380
vt 0.660547 0.578058
vt 0.597815 0.592368
vt 0.605621 0.592368
vt 0.605621 0.588522
vt 0.597815 0.588522
vt 0.605621 0.592368
vt 0.597815 0.592368
vt 0.597815 0.588522
vt 0.605621 0.588522
vt 0.586449 0.578058
vt 0.586449 0.581380
vt 0.664393 0.550563
vt 0.660547 0.550563
vt 0.547305 0.550563
vt 0.551579 0.550563
vt 0.605621 0.550563
vt 0.597815 0.550563
vt 0.551579 0.550563
vt 0.547305 0.550563
vt 0.597815 0.550563
vt 0.605621 0.550563
vt 0.660547 0.550563
vt 0.664393 0.550563
vt 0.573372 0.581380
vt 0.573372 0.578058
vt 0.586449 0.578058
vt 0.586449 0.581380
vt 0.605621 0.514423
vt 0.597815 0.514423
vt 0.660547 0.451336
vt 0.664393 0.451336
vt 0.597815 0.451336
vt 0.605621 0.451336
vt 0.551579 0.451336
vt 0.547305 0.451336
vt 0.605621 0.451336
vt 0.597815 0.451336
vt 0.547305 0.451336
vt 0.551579 0.451336
vt 0.664393 0.451336
vt 0.660547 0.451336
vt 0.664393 0.397906
vt 0.660547 0.397906
vt 0.547305 0.397906
vt 0.551579 0.397906
vt 0.605621 0.397906
vt 0.597815 0.397906
vt 0.551579 0.397906
vt 0.547305 0.397906
vt 0.597815 0.397906
vt 0.605621 0.397906
vt 0.660547 0.397906
vt 0.664393 0.397906
vn -1.0000 0.0000 0.0000
vn 0.0000 0.0000 -1.0000
vn 1.0000 0.0000 0.0000
vn 0.0000 0.0000 1.0000
vn 0.0000 -1.0000 0.0000
vn 0.0000 1.0000 0.0000
usemtl iron_brushed
s off
f 156/217/20 145/218/20 136/219/20 150/220/20
f 150/221/21 136/222/21 140/223/21 151/224/21
f 153/225/22 144/226/22 138/227/22 152/228/22
f 152/229/23 138/230/23 134/231/23 149/232/23
f 141/233/24 143/234/24 137/235/24 133/236/24
f 144/237/25 142/238/25 134/239/25 138/240/25
f 157/241/25 158/242/25 142/238/25 144/237/25
f 160/243/22 157/244/22 144/226/22 153/225/22
f 149/245/20 134/246/20 142/247/20 154/248/20
f 151/249/22 140/250/22 148/251/22 155/252/22
f 135/253/24 139/254/24 146/255/24 147/256/24
f 140/257/25 136/258/25 145/259/25 148/260/25
f 162/261/20 161/262/20 145/218/20 156/217/20
f 166/263/22 151/249/22 155/252/22 170/264/22
f 172/265/20 149/245/20 154/248/20 169/266/20
f 167/267/23 152/229/23 149/232/23 172/268/23
f 168/269/22 153/225/22 152/228/22 167/270/22
f 165/271/21 150/221/21 151/224/21 166/272/21
f 171/273/20 156/217/20 150/220/20 165/274/20
f 154/248/20 142/247/20 158/275/20 159/276/20
f 164/277/22 163/278/22 157/244/22 160/243/22
f 163/279/25 161/280/25 158/242/25 157/241/25
f 148/260/25 145/259/25 161/280/25 163/279/25
f 155/252/22 148/251/22 163/278/22 164/277/22
f 159/276/20 158/275/20 161/262/20 162/261/20
f 179/281/20 171/273/20 165/274/20 173/282/20
f 173/283/21 165/271/21 166/272/21 174/284/21
f 176/285/22 168/269/22 167/270/22 175/286/22
f 175/287/23 167/267/23 172/268/23 180/288/23
f 180/289/20 172/265/20 169/266/20 177/290/20
f 174/291/22 166/263/22 170/264/22 178/292/22
f 139/293/22 174/291/22 178/292/22 146/294/22
f 133/295/20 180/289/20 177/290/20 141/296/20
f 137/297/23 175/287/23 180/288/23 133/298/23
f 143/299/22 176/285/22 175/286/22 137/300/22
f 135/301/21 173/283/21 174/284/21 139/302/21
f 147/303/20 179/281/20 173/282/20 135/304/20
o glass_Cube.005
v 0.074399 3.914212 -2.670462
v 0.074399 3.914212 -3.005498
v 0.131880 3.914212 -3.005498
v 0.131880 3.914212 -2.670462
v 0.131880 1.371847 -2.670462
v 0.074399 1.371847 -2.670462
v 0.131880 1.371847 -3.005498
v 0.074399 1.371847 -3.005498
vt 0.528741 -0.771183
vt 0.528741 1.771183
vt 0.471259 1.771183
vt 0.471259 -0.771183
vt 0.528741 -0.771183
vt 0.471259 -0.771183
vt 0.471259 1.771183
vt 0.528741 1.771183
vt 0.528741 0.667518
vt 0.471259 0.667518
vt 0.471259 0.332482
vt 0.528741 0.332482
vt 0.471259 0.332482
vt 0.471259 0.667518
vt 0.528741 0.667518
vt 0.528741 0.332482
vt 0.667518 1.771183
vt 0.332482 1.771183
vt 0.332482 -0.771183
vt 0.667518 -0.771183
vt 0.332482 1.771183
vt 0.667518 1.771183
vt 0.667518 -0.771183
vt 0.332482 -0.771183
vn 0.0000 0.0000 1.0000
vn 0.0000 0.0000 -1.0000
vn 0.0000 1.0000 0.0000
vn 0.0000 -1.0000 0.0000
vn 1.0000 0.0000 0.0000
vn -1.0000 0.0000 0.0000
usemtl Basic_glass
s off
f 187/305/26 183/306/26 182/307/26 188/308/26
f 185/309/27 186/310/27 181/311/27 184/312/27
f 187/313/28 188/314/28 186/315/28 185/316/28
f 181/317/29 182/318/29 183/319/29 184/320/29
f 182/321/30 181/322/30 186/323/30 188/324/30
f 184/325/31 183/326/31 187/327/31 185/328/31
