# Blender v2.90.1 OBJ File: 'floor.blend'
# www.blender.org
mtllib floor.mtl
o floor_Cube.005
v -0.389308 1.010669 5.626844
v -11.562174 1.010671 5.626843
v -0.389306 1.010669 -5.605286
v -11.562172 1.010671 -5.605287
v -0.389308 1.196136 5.626844
v -11.562174 1.196137 5.626843
v -0.389306 1.196136 -5.605286
v -11.562172 1.196137 -5.605287
vt 1.398124 1.393385
vt 1.398125 -0.393385
vt -0.398124 -0.393385
vt -0.398124 1.393385
vt 0.514830 1.393385
vt 0.514830 -0.393385
vt 0.485171 -0.393385
vt 0.485170 1.393385
vt -0.398124 1.393385
vt -0.398124 -0.393385
vt 1.398125 -0.393385
vt 1.398124 1.393385
vt 0.485170 1.393385
vt 0.485171 -0.393385
vt 0.514830 -0.393385
vt 0.514830 1.393385
vt 0.514830 -0.398124
vt 0.485170 -0.398124
vt 0.485170 1.398124
vt 0.514830 1.398124
vt 0.485171 -0.398124
vt 0.514830 -0.398124
vt 0.514830 1.398125
vt 0.485171 1.398125
vn -0.0000 -1.0000 0.0000
vn 0.0000 0.0000 -1.0000
vn 0.0000 1.0000 0.0000
vn -0.0000 0.0000 1.0000
vn 1.0000 0.0000 0.0000
vn -1.0000 0.0000 -0.0000
g floor_Cube.005_yellowish_glossy_tiles
usemtl yellowish_glossy_tiles
s off
f 1/1/1 2/2/1 4/3/1 3/4/1
f 3/5/2 4/6/2 8/7/2 7/8/2
f 7/9/3 8/10/3 6/11/3 5/12/3
f 5/13/4 6/14/4 2/15/4 1/16/4
f 3/17/5 7/18/5 5/19/5 1/20/5
f 8/21/6 4/22/6 2/23/6 6/24/6
